<svg version="1.1" id="Layer_1" xmlns="http://www.w3.org/2000/svg" xmlns:xlink="http://www.w3.org/1999/xlink" x="0px" y="0px"
	 width="100%" viewBox="0 0 800 800" enable-background="new 0 0 800 800" xml:space="preserve">
<path fill="#000000" opacity="0.000000" stroke="none" 
	d="
M378.000000,801.000000 
	C252.000000,801.000000 126.500000,801.000000 1.000000,801.000000 
	C1.000000,534.333313 1.000000,267.666656 1.000000,1.000000 
	C267.666656,1.000000 534.333313,1.000000 801.000000,1.000000 
	C801.000000,267.666656 801.000000,534.333313 801.000000,801.000000 
	C660.166687,801.000000 519.333313,801.000000 378.000000,801.000000 
M235.080566,279.821106 
	C228.388229,273.213531 221.695892,266.605957 214.741608,259.357330 
	C213.176559,258.538605 211.611496,257.719849 209.766205,256.296509 
	C208.351303,257.255859 206.741074,258.018982 205.550751,259.203949 
	C187.246048,277.425903 169.016418,295.723297 150.691620,313.924927 
	C149.336212,315.271210 147.387924,316.020599 146.302307,316.687073 
	C232.136017,402.521759 316.703522,487.090179 401.348083,571.735718 
	C403.675812,570.109009 406.526886,568.678040 408.669891,566.538086 
	C487.081757,488.238037 565.436218,409.880463 643.759766,331.492004 
	C647.887817,327.360504 651.677795,322.891235 655.644165,318.558533 
	C653.039673,315.094788 651.274719,312.096741 648.903015,309.698822 
	C633.084106,293.704987 617.151917,277.822998 601.202637,261.958740 
	C599.713013,260.476990 597.909363,259.279388 596.137573,258.124695 
	C595.094116,257.444672 593.826050,257.109253 591.794067,256.255371 
	C591.135559,257.057922 590.084290,258.584900 588.795532,259.874451 
	C528.131592,320.573975 467.447174,381.253021 406.764160,441.933502 
	C405.704254,442.993286 404.798889,444.448334 403.516754,444.969757 
	C402.472778,445.394318 400.686157,445.092133 399.735779,444.408020 
	C398.007416,443.163818 396.672729,441.379425 395.143890,439.850342 
	C352.846558,397.546692 310.552185,355.240082 268.240021,312.951263 
	C257.874756,302.591736 247.449219,292.292450 236.956787,281.519867 
	C236.503662,281.132416 236.050537,280.744995 235.080566,279.821106 
z"/>
<path fill="#8888FE" opacity="1.000000" stroke="none" 
	d="
M215.003571,259.998413 
	C221.695892,266.605957 228.388229,273.213531 235.079834,280.309296 
	C235.041107,281.296509 235.003082,281.795563 234.965057,282.294556 
	C235.660507,282.184875 236.355942,282.075165 237.051392,281.965454 
	C247.449219,292.292450 257.874756,302.591736 268.240021,312.951263 
	C310.552185,355.240082 352.846558,397.546692 395.143890,439.850342 
	C396.672729,441.379425 398.007416,443.163818 399.735779,444.408020 
	C400.686157,445.092133 402.472778,445.394318 403.516754,444.969757 
	C404.798889,444.448334 405.704254,442.993286 406.764160,441.933502 
	C467.447174,381.253021 528.131592,320.573975 588.795532,259.874451 
	C590.084290,258.584900 591.135559,257.057922 591.794067,256.255371 
	C593.826050,257.109253 595.094116,257.444672 596.137573,258.124695 
	C597.909363,259.279388 599.713013,260.476990 601.202637,261.958740 
	C617.151917,277.822998 633.084106,293.704987 648.903015,309.698822 
	C651.274719,312.096741 653.039673,315.094788 655.644165,318.558533 
	C651.677795,322.891235 647.887817,327.360504 643.759766,331.492004 
	C565.436218,409.880463 487.081757,488.238037 408.669891,566.538086 
	C406.526886,568.678040 403.675812,570.109009 401.348083,571.735718 
	C316.703522,487.090179 232.136017,402.521759 146.302307,316.687073 
	C147.387924,316.020599 149.336212,315.271210 150.691620,313.924927 
	C169.016418,295.723297 187.246048,277.425903 205.550751,259.203949 
	C206.741074,258.018982 208.351303,257.255859 209.882401,256.875671 
	C210.001343,257.640045 210.004089,257.825287 210.135620,258.249390 
	C210.513458,258.753418 210.762512,259.018585 211.292938,259.487640 
	C212.717392,259.793823 213.860474,259.896118 215.003571,259.998413 
z"/>
<path fill="#7878E0" opacity="1.000000" stroke="none" 
	d="
M210.006821,258.010498 
	C210.004089,257.825287 210.001343,257.640045 210.022522,257.177979 
	C211.611496,257.719849 213.176559,258.538605 214.872589,259.677856 
	C213.860474,259.896118 212.717392,259.793823 211.173126,259.237305 
	C210.516907,258.525543 210.261856,258.268005 210.006821,258.010498 
z"/>
<path fill="#6666C1" opacity="1.000000" stroke="none" 
	d="
M237.004089,281.742676 
	C236.355942,282.075165 235.660507,282.184875 234.965057,282.294556 
	C235.003082,281.795563 235.041107,281.296509 235.338257,280.577515 
	C236.050537,280.744995 236.503662,281.132416 237.004089,281.742676 
z"/>
<path fill="#6666C1" opacity="1.000000" stroke="none" 
	d="
M210.135620,258.249390 
	C210.261856,258.268005 210.516907,258.525543 210.891754,259.033386 
	C210.762512,259.018585 210.513458,258.753418 210.135620,258.249390 
z"/>
</svg>